<?xml version="1.0" encoding="UTF-8" standalone="no"?>
<svg
   width="1080"
   height="430"
   viewBox="0 0 1080 430"
   version="1.1"
   id="svg4"
   sodipodi:docname="isotipo-alfacredit.svg"
   inkscape:version="1.4.2 (f4327f4, 2025-05-13)"
   xmlns:inkscape="http://www.inkscape.org/namespaces/inkscape"
   xmlns:sodipodi="http://sodipodi.sourceforge.net/DTD/sodipodi-0.dtd"
   xmlns="http://www.w3.org/2000/svg"
   xmlns:svg="http://www.w3.org/2000/svg">
  <defs
     id="defs4" />
  <sodipodi:namedview
     id="namedview4"
     pagecolor="#505050"
     bordercolor="#eeeeee"
     borderopacity="1"
     inkscape:showpageshadow="0"
     inkscape:pageopacity="0"
     inkscape:pagecheckerboard="0"
     inkscape:deskcolor="#505050"
     inkscape:zoom="2.2903704"
     inkscape:cx="608.85349"
     inkscape:cy="257.81856"
     inkscape:window-width="1920"
     inkscape:window-height="991"
     inkscape:window-x="-9"
     inkscape:window-y="-9"
     inkscape:window-maximized="1"
     inkscape:current-layer="svg4" />
  <path
     d="m 475.41012,7.1759822 c 0,0 0,0.01 0.02,0.01 1.94,0.46 13.41,1.34 25.5,1.95 30.69,1.5499998 39.15,2.3599998 61.97,5.9199998 22.61,3.53 24.23,3.82 41.5,7.42 56.11,11.7 109.92,31.67 154.95,57.5 22.7,13.02 65.03,43.229998 92.36,65.919998 4.14,3.44 7.99,6.25 8.54,6.25 1.26,0 15.07,-11.22 29.65,-24.07 19.18,-16.91 32,-30.889998 51.5,-56.139998 12.65,-16.38 16.67,-22.15 22.15,-31.76 2.89,-5.09 5.86,-9.48 6.58,-9.75 0.71,-0.28 5.68,1.09 11.04,3.04 14.59,5.32 39.31998,14.65 42.72998,16.12 1.65,0.72 7.72,2.99 13.5,5.04 5.78,2.06 11.85,4.3 13.5,4.99 1.65,0.68 5.59,2.26 8.75,3.5 3.56,1.4 5.75,2.85 5.75,3.82 0,0.85 -1.45,4.74 -3.22,8.63 -7.05,15.52 -20.29,36.349998 -34.39,54.079998 -3.5,4.4 -9.89,12.5 -14.21,18 -18.59998,23.69 -41.51998,47.04 -69.81998,71.14 l -4.86,4.13 47.14,47.37 c 48.68998,48.91 69.33998,70.51 69.34998,72.52 0.01,1.99 -72.86998,69.34 -75.02998,69.34 -0.39,0 -4.47,-3.94 -9.08,-8.75 -42.62,-44.51 -113.85,-115.25 -116.06,-115.25 -0.63,0 -8.15,4.59 -16.71,10.19 -55.96,36.65 -118.88,66.16 -189.11,88.7 -6.88,2.2 -14.3,4.46 -16.5,5.02 -2.2,0.56 -10.53,2.83 -18.5,5.05 -27.6,7.69 -62.51,15.49 -85,18.99 -26.58,4.13 -68.7,6.81 -89.14,5.68 -30.87,-1.71 -43.83,-2.64 -49.86,-3.55 -3.58,-0.55 -10.55,-1.49 -15.5,-2.1 -16.39,-2.02 -53.79,-9.33 -69,-13.5 -3.3,-0.9 -8.7,-2.29 -12,-3.09 -3.3,-0.8 -10.14,-2.79 -15.19,-4.42 -5.06,-1.63 -10.01,-2.98 -11,-2.98 -1,-0.01 -3.83,-0.74 -6.31,-1.61 -2.48,-0.88 -7.2,-2.4 -10.5,-3.39 -13.47,-4.05 -42.84,-15.39 -62,-23.95 -2.2,-0.99 -6.48,-2.83 -9.5,-4.1 -8.74,-3.67 -44.36,-21.9 -57.5,-29.42 -37.929997,-21.72 -71.139997,-47.32 -82.989997,-63.97 -13.87,-19.49 -19.51,-35.41 -19.51,-55.05 0,-12.17 1.71,-21.15 5.98,-31.49 7.47,-18.04 15.12,-29.25 30.07,-44.08 21.91,-21.72 50.749997,-39.809998 99.949997,-62.659998 24.73,-11.49 78.83,-31.23 103.5,-37.77 38.54,-10.21 65.08,-15.92 90.52,-19.47 31.99,-4.46 44.13,-5.6799998 65.59,-6.6199998 49.81078,-2.4244137 60.4,-1.84 60.4,-1.38 z m -55.01,309.9199978 c 27.61,1.68 62,0.69 84,-2.42 50.92,-7.19 123.67,-27.66 172.5,-48.54 6.6,-2.82 13.68,-5.75 15.73,-6.51 6.83,-2.52 49.1,-24.08 61.27,-31.25 13.43,-7.92 17.5,-10.83 17.49,-12.56 0,-1.63 -29.74,-23.59 -49.26,-36.38 -17.64,-11.56 -42.28,-24.37 -61.23,-31.84 -17.94,-7.06 -44.24,-15.52 -57.5,-18.49 -1.92,-0.43 -6.2,-1.46 -9.5,-2.29 -9.61,-2.4 -19.65,-4.57 -24.5,-5.28 -2.47,-0.37 -4.95,-1.01 -5.5,-1.43 -1.8,-1.37 -32.22,-5.44 -59.8,-8.01 -17.86,-1.67 -79.96,-1.37 -99.2,0.48 -20.39,1.95 -38.29,4.32 -41.5,5.5 -1.38,0.5 -4.3,1.15 -6.5,1.43 -10.72,1.4 -16.74,2.62 -45.5,9.15 -26.3,5.98 -74.69,21.66 -92.65,30.02 -1.73,0.81 -3.43,1.47 -3.78,1.47 -0.34,0 -3.88,1.5 -7.85,3.33 -3.97,1.83 -10.6,4.83 -14.72,6.66 -27.31,12.1 -62,33.86 -62,38.88 0,4.3 36.86,27.77 70,44.58 38.78,19.67 87.46,38.11 124.5,47.16 3.3,0.8 7.58,1.88 9.5,2.39 24.95,6.59 60.91,12.43 86,13.95 z"
     fill="#19a80c"
     id="path1"
     sodipodi:nodetypes="cccccccscscccccccsccccccsscsccsccccccsccccccccscccccccccccccccscccccccccsscscccc" />
</svg>
